<?xml version="1.0" standalone="no"?>
<!DOCTYPE svg PUBLIC "-//W3C//DTD SVG 20010904//EN"
 "http://www.w3.org/TR/2001/REC-SVG-20010904/DTD/svg10.dtd">
<svg version="1.0" xmlns="http://www.w3.org/2000/svg"
 width="615.000000pt" height="240.000000pt" viewBox="0 0 615.000000 240.000000"
 preserveAspectRatio="xMidYMid meet">
<metadata>
Created by potrace 1.15, written by Peter Selinger 2001-2017
</metadata>
<g transform="translate(0.000000,240.000000) scale(0.100000,-0.100000)"
fill="#000000" stroke="none">
<path d="M3934 1346 c-28 -28 -34 -41 -34 -77 1 -24 7 -55 14 -69 13 -22 11
-27 -15 -59 -50 -61 -34 -162 31 -196 37 -19 110 -19 157 0 33 14 38 14 54 -1
16 -14 20 -13 58 21 l41 37 -71 79 -70 78 23 31 c41 56 24 146 -34 176 -15 8
-48 14 -74 14 -39 0 -51 -5 -80 -34z"/>
</g>
</svg>
